<svg viewBox="0 0 128 128" version="1.1" id="svg7" xmlns="http://www.w3.org/2000/svg">
<style>@media (prefers-color-scheme: dark) { .themed { fill: #eee; } }</style>
<path class="themed" d="M44.7 12.7A19.4 19.4 0 0 0 25.6 32v12.7a16.2 16.2 0 0 1-2.7 8.3c-1.8 2.6-4.3 4.5-10.2 4.5-8.4.2-8.4 12.8 0 12.9 2 0 5.8.8 8.3 2.7 2.6 1.8 4.5 4.2 4.5 10.2V96c0 10.6 8.7 19.3 19.2 19.3H48a6.4 6.4 0 0 0 0-12.9h-3.3a6.3 6.3 0 0 1-6.3-6.3v-13c0-8.7-4-15.3-9-19.4 1.3-1 3.1-1.9 4-3.3a27 27 0 0 0 5-15.8V32a6.3 6.3 0 0 1 6.4-6.4h3.3a6.4 6.4 0 0 0 0-12.9zm35.3 0a6.4 6.4 0 1 0 0 12.9h3.3a6.3 6.3 0 0 1 6.3 6.3v12.8a27 27 0 0 0 5 15.8c1 1.3 2.7 2.2 4 3.3a24.8 24.8 0 0 0-9 19.5V96a6.3 6.3 0 0 1-6.3 6.4H80a6.4 6.4 0 0 0 0 12.9h3.3c10.5 0 19.1-8.7 19.1-19.3V83.3c0-6 2-8.4 4.5-10.2 2.7-1.9 6.4-2.7 8.4-2.7 8.4-.1 8.4-12.6 0-12.8-6 0-8.4-2-10.2-4.5a16.5 16.5 0 0 1-2.7-8.4V32c0-10.6-8.6-19.3-19.1-19.3Z"/>
</svg>